# xmcd
#
# Track frame offsets: 
#        150
#        15543
#        31199
#        52036
#        67711
#        84368
#        100182
#        120322
#        135056
#        151020
#        167223
#        184490
#
# Disc length: 2689 seconds
#
# Revision: 0
# Processed by: cddbd v1.5.2PL0 Copyright (c) Steve Scherf et al.
# Submitted via: ExactAudioCopy v1.0b3
#
DISCID=830a7f0c
DTITLE=Виктор Калина - Женщина-беда
DYEAR=1900
DGENRE=
TTITLE0=Ну и что ж
TTITLE1=Калина
TTITLE2=Северный ветер
TTITLE3=Ты одна
TTITLE4=Люблю жену
TTITLE5=За друзей
TTITLE6=Володарка
TTITLE7=Женщина-беда
TTITLE8=Звучит шансон
TTITLE9=Коляда
TTITLE10=Минчанка
TTITLE11=Домой
EXTD=
EXTT0=
EXTT1=
EXTT2=
EXTT3=
EXTT4=
EXTT5=
EXTT6=
EXTT7=
EXTT8=
EXTT9=
EXTT10=
EXTT11=
PLAYORDER=
